<svg width="22.285522" height="22.216461" viewBox="0 0 22.2855 22.2165" fill="none" xmlns="http://www.w3.org/2000/svg" xmlns:xlink="http://www.w3.org/1999/xlink">
	<path id="Vector" d="M17.2902 11.7975L5.06079 16.9554C4.88922 17.0278 4.72052 16.847 4.80463 16.6808L6.82428 12.6904L6.91827 12.5004C7.19501 11.9413 7.19501 11.2851 6.91827 10.726L6.82428 10.536L4.80463 6.54559C4.72052 6.37939 4.88922 6.19861 5.06079 6.271L17.2902 11.4289C17.4532 11.4977 17.4532 11.7287 17.2902 11.7975ZM20.0552 10.6893L3.27759 3.73938C2.97852 3.61548 2.63416 3.68488 2.40643 3.91492C2.1767 4.14697 2.11182 4.49561 2.24268 4.79474L4.87433 10.8118C5.09778 11.3227 5.09778 11.9037 4.87433 12.4146L2.24268 18.4316C2.11182 18.7308 2.1767 19.0794 2.40643 19.3115C2.63416 19.5416 2.97852 19.6109 3.27759 19.4871L20.0552 12.537C20.8783 12.1961 20.8783 11.0303 20.0552 10.6893Z" fill="#FFFFFF" fill-opacity="1.000000" fill-rule="nonzero"/>
</svg>
