<svg width="22.791992" height="19.656647" viewBox="0 0 22.792 19.6566" fill="none" xmlns="http://www.w3.org/2000/svg" xmlns:xlink="http://www.w3.org/1999/xlink">
	<path id="Fill 1" d="M17.7272 4.03937L17.2206 4.03937C16.2076 2.01965 14.1818 0 10.6362 0C7.09082 0 4.62097 2.14301 4.05188 5.55414C1.80566 5.55414 0 7.81824 0 10.0984C0.50647 12.623 1.01294 13.6329 3.56738 14.1378L17.8787 14.1378C20.5878 14.1378 22.792 11.8994 22.792 9.14856C22.792 6.39777 20.4363 4.03937 17.7272 4.03937ZM17.719 12.6235C19.7347 12.6235 21.374 10.9764 21.374 8.95154C21.374 6.927 19.7347 5.27997 17.719 5.27997C17.3445 5.27997 16.9719 5.33771 16.6119 5.45166L16.1879 5.58685L16.0389 5.16724C15.2516 2.94415 13.1478 1.45074 10.8035 1.45074C7.93823 1.45074 5.55969 3.60724 5.27075 6.46692L5.22388 6.93542L4.7561 6.87689C4.61414 6.85962 4.49866 6.8512 4.39294 6.8512C2.80859 6.8512 1.51965 8.14606 1.51965 9.73779C1.51965 11.329 2.80859 12.6235 4.39294 12.6235L17.719 12.6235Z" clip-rule="evenodd" fill="#FFFFFF" fill-opacity="1.000000" fill-rule="evenodd"/>
	<path id="Fill 2" d="M4.17639 16.1792C4.75635 17.2317 5.33618 18.2836 5.91663 19.3361C6.32019 20.0685 7.44727 19.4147 7.04321 18.6816C6.46326 17.6292 5.88342 16.5767 5.30298 15.5242C4.89941 14.7917 3.77234 15.4455 4.17639 16.1792Z" fill="#FFFFFF" fill-opacity="1.000000" fill-rule="evenodd"/>
	<path id="Fill 3" d="M8.4939 16.1795C9.07373 17.2319 9.65356 18.2838 10.2334 19.3362C10.6375 20.0686 11.7645 19.4148 11.3605 18.6818C10.7806 17.6294 10.2008 16.5769 9.62036 15.5245C9.21692 14.7921 8.08923 15.4459 8.4939 16.1795Z" fill="#FFFFFF" fill-opacity="1.000000" fill-rule="evenodd"/>
	<path id="Fill 4" d="M13.0312 16.1794C13.6116 17.2317 14.1914 18.2834 14.7711 19.3357C15.1746 20.0681 16.3021 19.4144 15.8981 18.6814C15.3184 17.6291 14.7379 16.5768 14.1582 15.5245C13.7548 14.7921 12.6272 15.4458 13.0312 16.1794Z" fill="#FFFFFF" fill-opacity="1.000000" fill-rule="evenodd"/>
	<path id="Fill 5" d="M17.4163 16.1792C17.9961 17.2315 18.5764 18.2832 19.1561 19.3354C19.5596 20.0678 20.6871 19.4141 20.2831 18.6812C19.7028 17.6288 19.1229 16.5765 18.5432 15.5243C18.1392 14.7919 17.0123 15.4456 17.4163 16.1792Z" fill="#FFFFFF" fill-opacity="1.000000" fill-rule="evenodd"/>
</svg>
