<svg width="28.180420" height="22.647644" viewBox="0 0 28.1804 22.6476" fill="none" xmlns="http://www.w3.org/2000/svg" xmlns:xlink="http://www.w3.org/1999/xlink">
	<path id="Vector" d="M27.4958 19.4558L21.6569 14.8815C23.0925 13.3347 23.9414 11.4322 23.9414 9.37744C23.9414 4.20685 18.5715 0 11.9701 0C5.37 0 0 4.20685 0 9.37744C0 14.5491 5.37 18.7549 11.9701 18.7549C14.4724 18.7549 16.7963 18.1506 18.7203 17.1185L25.2931 22.2676C25.9399 22.7744 26.849 22.7744 27.4958 22.2676C28.4086 21.5526 28.4086 20.1709 27.4958 19.4558ZM3.51111 9.37744C3.51111 5.72284 7.30627 2.74963 11.9713 2.74963C16.6364 2.74963 20.4316 5.72284 20.4316 9.37744C20.4316 13.032 16.6364 16.0053 11.9713 16.0053C7.30505 16.0053 3.51111 13.032 3.51111 9.37744Z" fill="#FFFFFF" fill-opacity="1.000000" fill-rule="nonzero"/>
</svg>
