<svg width="0" height="0" fill="none" style="visibility: hidden; position: absolute;" aria-hidden="true">
    <symbol id="arrow" viewBox="0 0 22.2855 22.2165" fill="none"
        xmlns="http://www.w3.org/2000/svg">
        <path id="Vector__arrow"
            d="M17.2902 11.7975L5.06079 16.9554C4.88922 17.0278 4.72052 16.847 4.80463 16.6808L6.82428 12.6904L6.91827 12.5004C7.19501 11.9413 7.19501 11.2851 6.91827 10.726L6.82428 10.536L4.80463 6.54559C4.72052 6.37939 4.88922 6.19861 5.06079 6.271L17.2902 11.4289C17.4532 11.4977 17.4532 11.7287 17.2902 11.7975ZM20.0552 10.6893L3.27759 3.73938C2.97852 3.61548 2.63416 3.68488 2.40643 3.91492C2.1767 4.14697 2.11182 4.49561 2.24268 4.79474L4.87433 10.8118C5.09778 11.3227 5.09778 11.9037 4.87433 12.4146L2.24268 18.4316C2.11182 18.7308 2.1767 19.0794 2.40643 19.3115C2.63416 19.5416 2.97852 19.6109 3.27759 19.4871L20.0552 12.537C20.8783 12.1961 20.8783 11.0303 20.0552 10.6893Z"
            fill="#FFFFFF" fill-opacity="1.000000" fill-rule="nonzero" />
    </symbol>
    <symbol id="cloud-hum" viewBox="0 0 22.792 19.6566" fill="none"
        xmlns="http://www.w3.org/2000/svg">
        <path id="Fill 1__cloud-hum"
            d="M17.7272 4.03937L17.2206 4.03937C16.2076 2.01965 14.1818 0 10.6362 0C7.09082 0 4.62097 2.14301 4.05188 5.55414C1.80566 5.55414 0 7.81824 0 10.0984C0.50647 12.623 1.01294 13.6329 3.56738 14.1378L17.8787 14.1378C20.5878 14.1378 22.792 11.8994 22.792 9.14856C22.792 6.39777 20.4363 4.03937 17.7272 4.03937ZM17.719 12.6235C19.7347 12.6235 21.374 10.9764 21.374 8.95154C21.374 6.927 19.7347 5.27997 17.719 5.27997C17.3445 5.27997 16.9719 5.33771 16.6119 5.45166L16.1879 5.58685L16.0389 5.16724C15.2516 2.94415 13.1478 1.45074 10.8035 1.45074C7.93823 1.45074 5.55969 3.60724 5.27075 6.46692L5.22388 6.93542L4.7561 6.87689C4.61414 6.85962 4.49866 6.8512 4.39294 6.8512C2.80859 6.8512 1.51965 8.14606 1.51965 9.73779C1.51965 11.329 2.80859 12.6235 4.39294 12.6235L17.719 12.6235Z"
            clip-rule="evenodd" fill="#FFFFFF" fill-opacity="1.000000" fill-rule="evenodd" />
        <path id="Fill 2__cloud-hum"
            d="M4.17639 16.1792C4.75635 17.2317 5.33618 18.2836 5.91663 19.3361C6.32019 20.0685 7.44727 19.4147 7.04321 18.6816C6.46326 17.6292 5.88342 16.5767 5.30298 15.5242C4.89941 14.7917 3.77234 15.4455 4.17639 16.1792Z"
            fill="#FFFFFF" fill-opacity="1.000000" fill-rule="evenodd" />
        <path id="Fill 3__cloud-hum"
            d="M8.4939 16.1795C9.07373 17.2319 9.65356 18.2838 10.2334 19.3362C10.6375 20.0686 11.7645 19.4148 11.3605 18.6818C10.7806 17.6294 10.2008 16.5769 9.62036 15.5245C9.21692 14.7921 8.08923 15.4459 8.4939 16.1795Z"
            fill="#FFFFFF" fill-opacity="1.000000" fill-rule="evenodd" />
        <path id="Fill 4__cloud-hum"
            d="M13.0312 16.1794C13.6116 17.2317 14.1914 18.2834 14.7711 19.3357C15.1746 20.0681 16.3021 19.4144 15.8981 18.6814C15.3184 17.6291 14.7379 16.5768 14.1582 15.5245C13.7548 14.7921 12.6272 15.4458 13.0312 16.1794Z"
            fill="#FFFFFF" fill-opacity="1.000000" fill-rule="evenodd" />
        <path id="Fill 5__cloud-hum"
            d="M17.4163 16.1792C17.9961 17.2315 18.5764 18.2832 19.1561 19.3354C19.5596 20.0678 20.6871 19.4141 20.2831 18.6812C19.7028 17.6288 19.1229 16.5765 18.5432 15.5243C18.1392 14.7919 17.0123 15.4456 17.4163 16.1792Z"
            fill="#FFFFFF" fill-opacity="1.000000" fill-rule="evenodd" />
    </symbol>
    <symbol id="hum" viewBox="0 0 24.548 25.233" fill="none"
        xmlns="http://www.w3.org/2000/svg">
        <defs>
            <filter id="filter_240_1520_dd__hum" x="0.000000" y="0.000000" width="24.547974" height="25.233032"
                filterUnits="userSpaceOnUse" color-interpolation-filters="sRGB">
                <feFlood flood-opacity="0" result="BackgroundImageFix" />
                <feColorMatrix in="SourceAlpha" type="matrix" values="0 0 0 0 0 0 0 0 0 0 0 0 0 0 0 0 0 0 127 0"
                    result="hardAlpha" />
                <feOffset dx="-1.50827" dy="2.26241" />
                <feGaussianBlur stdDeviation="0.251379" />
                <feComposite in2="hardAlpha" operator="out" k2="-1" k3="1" />
                <feColorMatrix type="matrix" values="0 0 0 0 0 0 0 0 0 0 0 0 0 0 0 0 0 0 0.1 0" />
                <feBlend mode="normal" in2="BackgroundImageFix" result="effect_dropShadow_1" />
                <feBlend mode="normal" in="SourceGraphic" in2="effect_dropShadow_1" result="shape" />
                <feColorMatrix in="SourceAlpha" type="matrix" values="0 0 0 0 0 0 0 0 0 0 0 0 0 0 0 0 0 0 127 0"
                    result="hardAlpha" />
                <feOffset dx="-0.754137" dy="0.754137" />
                <feGaussianBlur stdDeviation="0.502758" />
                <feComposite in2="hardAlpha" operator="arithmetic" k2="-1" k3="1" />
                <feColorMatrix type="matrix" values="0 0 0 0 1 0 0 0 0 1 0 0 0 0 1 0 0 0 0.25 0" />
                <feBlend mode="normal" in2="shape" result="effect_innerShadow_2" />
            </filter>
            <clipPath id="clip240_1520__hum">
                <rect id="hum__hum" width="22.285536" height="22.216467" transform="translate(2.262451 0.000000)"
                    fill="white" fill-opacity="0" />
            </clipPath>
        </defs>
        <g filter="url(#filter_240_1520_dd__hum)">
            <rect id="hum__hum" width="22.285536" height="22.216467" transform="translate(2.262451 0.000000)"
                fill="#FFFFFF" fill-opacity="0" />
            <g clip-path="url(#clip240_1520__hum)">
                <path id="Vector__hum"
                    d="M13.4053 2.87018L8.80896 7.45233C7.8999 8.35852 7.28088 9.51312 7.03015 10.7701C6.77942 12.027 6.9082 13.3298 7.40015 14.5139C7.89221 15.6978 8.72534 16.7098 9.79419 17.4218C10.863 18.1338 12.1198 18.5138 13.4053 18.5138C14.6908 18.5138 15.9475 18.1338 17.0164 17.4218C18.0853 16.7098 18.9185 15.6978 19.4104 14.5139C19.9023 13.3298 20.0311 12.027 19.7804 10.7701C19.5297 9.51312 18.9106 8.35852 18.0017 7.45233L13.4053 2.87018ZM13.4053 0.252319L19.3147 6.14337C20.4834 7.30853 21.2793 8.79303 21.6018 10.4091C21.9242 12.0251 21.7588 13.7003 21.1262 15.2226C20.4937 16.7449 19.4225 18.0461 18.0482 18.9615C16.674 19.877 15.0581 20.3656 13.4053 20.3656C11.7524 20.3656 10.1367 19.877 8.76233 18.9615C7.38806 18.0461 6.31689 16.7449 5.68433 15.2226C5.05188 13.7003 4.88635 12.0251 5.20874 10.4091C5.53125 8.79303 6.32715 7.30853 7.49597 6.14337L13.4053 0.252319Z"
                    fill="#FFFFFF" fill-opacity="1.000000" fill-rule="nonzero" />
            </g>
        </g>
    </symbol>
    <symbol id="search" viewBox="0 0 28.1804 22.6476" fill="none" xmlns="http://www.w3.org/2000/svg">
        <path id="Vector__search"
            d="M27.4958 19.4558L21.6569 14.8815C23.0925 13.3347 23.9414 11.4322 23.9414 9.37744C23.9414 4.20685 18.5715 0 11.9701 0C5.37 0 0 4.20685 0 9.37744C0 14.5491 5.37 18.7549 11.9701 18.7549C14.4724 18.7549 16.7963 18.1506 18.7203 17.1185L25.2931 22.2676C25.9399 22.7744 26.849 22.7744 27.4958 22.2676C28.4086 21.5526 28.4086 20.1709 27.4958 19.4558ZM3.51111 9.37744C3.51111 5.72284 7.30627 2.74963 11.9713 2.74963C16.6364 2.74963 20.4316 5.72284 20.4316 9.37744C20.4316 13.032 16.6364 16.0053 11.9713 16.0053C7.30505 16.0053 3.51111 13.032 3.51111 9.37744Z"
            fill="#FFFFFF" fill-opacity="1.000000" fill-rule="nonzero" />
    </symbol>
    <symbol id="°-C" width="39.312561" height="23.594238" viewBox="0 0 39.3126 23.5942" fill="none"
        xmlns="http://www.w3.org/2000/svg">
        <path id="° C__°-C"
            d="M30.0706 1.33514e-05C34.6955 1.33514e-05 38.457 2.7826 39.3126 7.4922L36.53 7.4922C35.8594 4.30879 33.123 2.60532 30.0706 2.60532C25.9006 2.60532 22.6247 5.83498 22.6247 11.801C22.6247 17.7593 25.9006 20.9889 30.0706 20.9889C33.123 20.9889 35.8594 19.2854 36.53 16.102L39.3126 16.102C38.457 20.8116 34.6955 23.5942 30.0706 23.5942C24.1971 23.5942 19.9346 19.0619 19.9346 11.801C19.9346 4.53232 24.1971 1.33514e-05 30.0706 1.33514e-05ZM10.3133 5.29542C10.3133 8.13967 8.00094 10.4521 5.15669 10.4521C2.30472 10.4521 2.7895e-05 8.13967 2.7895e-05 5.29542C2.7895e-05 2.44345 2.30472 0.138758 5.15669 0.138758C8.00094 0.138758 10.3133 2.44345 10.3133 5.29542ZM2.24306 5.29542C2.24306 6.90639 3.538 8.20904 5.15669 8.20904C6.76766 8.20904 8.07031 6.90639 8.07031 5.29542C8.07031 3.67673 6.76766 2.38179 5.15669 2.38179C3.538 2.38179 2.24306 3.67673 2.24306 5.29542Z"
            fill="#FFFFFF" fill-opacity="1.000000" fill-rule="evenodd" />
    </symbol>


    <symbol id="wheater-icon" viewBox="0 0 246 160" fill="none" xmlns="http://www.w3.org/2000/svg">
        <defs>
            <filter id="filter_240_1500_dd" x="30.618042" y="-0.831543" width="91.085693" height="80.024963"
                filterUnits="userSpaceOnUse" color-interpolation-filters="sRGB">
                <feFlood flood-opacity="0" result="BackgroundImageFix" />
                <feBlend mode="normal" in="SourceGraphic" in2="BackgroundImageFix" result="shape" />
                <feGaussianBlur stdDeviation="6.66667" result="effect_layerBlur_1" />
            </filter>
            <filter id="filter_240_1502_dd" x="3.070801" y="7.054077" width="242.556152" height="152.921265"
                filterUnits="userSpaceOnUse" color-interpolation-filters="sRGB">
                <feFlood flood-opacity="0" result="BackgroundImageFix" />
                <feColorMatrix in="SourceAlpha" type="matrix" values="0 0 0 0 0 0 0 0 0 0 0 0 0 0 0 0 0 0 127 0"
                    result="hardAlpha" />
                <feOffset dx="10" dy="2" />
                <feGaussianBlur stdDeviation="10" />
                <feComposite in2="hardAlpha" operator="out" k2="-1" k3="1" />
                <feColorMatrix type="matrix" values="0 0 0 0 0.50196 0 0 0 0 0.50196 0 0 0 0 0.50196 0 0 0 0.3 0" />
                <feBlend mode="normal" in2="BackgroundImageFix" result="effect_dropShadow_1" />
                <feBlend mode="normal" in="SourceGraphic" in2="effect_dropShadow_1" result="shape" />
            </filter>
            <linearGradient id="paint_linear_240_1504_0" x1="114.361374" y1="35.055176" x2="224.790619" y2="120.077072"
                gradientUnits="userSpaceOnUse">
                <stop stop-color="#FFFFFF" stop-opacity="0.603922" />
                <stop offset="1.000000" stop-color="#FFFFFF" stop-opacity="0.200000" />
            </linearGradient>
        </defs>
        <path id="Subtraction 1"
            d="M53.35 13.54C56.97 13.54 60.58 13.84 64.13 14.43C70.98 15.58 77.48 17.82 83.26 21.02C91.27 25.43 97.67 31.53 101.79 38.65C105.9 45.78 107.58 53.68 106.66 61.51C105.73 69.35 102.22 76.84 96.5 83.2C90.79 89.55 83.07 94.53 74.17 97.62C70.94 98.74 67.57 99.59 64.13 100.17C56.66 101.4 48.96 101.33 41.53 99.95C34.11 98.57 27.13 95.91 21.06 92.17C14.99 88.42 9.97 83.66 6.34 78.21C2.71 72.76 0.55 66.74 0 60.56C5.85 61.68 11.93 61.75 17.82 60.77C23.11 59.89 28.13 58.17 32.6 55.71C39.25 52.06 44.45 46.92 47.58 40.91C48.63 38.87 49.44 36.76 49.98 34.6C51.15 29.96 51.1 25.17 49.86 20.55C49.23 18.24 48.31 15.99 47.1 13.84C49.17 13.64 51.26 13.54 53.35 13.54Z"
            fill="#713FFD" fill-opacity="1.000000" fill-rule="nonzero" />
        <g filter="url(#filter_240_1500_dd)">
            <path id="Ellipse 2"
                d="M54.41 23.24C61.81 16.56 77.54 18.27 89.55 27.07C101.56 35.87 105.3 48.42 97.9 55.11C90.5 61.8 74.77 60.08 62.76 51.28C50.75 42.48 47.01 29.93 54.41 23.24Z"
                fill="#A586FC" fill-opacity="1.000000" fill-rule="evenodd" />
        </g>
        <g filter="url(#filter_240_1502_dd)">
            <path id="Vector"
                d="M159.12 127.97L60.22 127.97C50.62 127.96 41.41 124.94 34.49 119.53C27.58 114.11 23.5 106.73 23.12 98.93C22.74 91.13 26.09 83.51 32.45 77.67C38.82 71.83 47.71 68.22 57.28 67.59C58.64 59.76 62.99 52.46 69.71 46.74C76.43 41.02 85.19 37.16 94.75 35.7C104.31 34.24 114.19 35.26 123.01 38.6C131.82 41.95 139.12 47.47 143.88 54.37C152.62 51.91 162.05 51.62 170.99 53.54C179.92 55.47 187.95 59.51 194.05 65.16C200.15 70.81 204.04 77.82 205.23 85.27C206.42 92.73 204.86 100.31 200.73 107.04C198.31 113.12 193.58 118.43 187.23 122.19C180.88 125.95 173.23 127.97 165.37 127.97L159.12 127.97Z"
                fill="url(#paint_linear_240_1504_0)" fill-opacity="1.000000" fill-rule="nonzero" />
            <path id="Vector"
                d="M165.37 127.55C169.36 127.55 173.28 127.03 177.03 126.01C180.65 125.02 184.05 123.58 187.13 121.72C190.18 119.89 192.85 117.69 195.08 115.19C197.33 112.66 199.06 109.87 200.24 106.91L200.25 106.88L200.27 106.85C201.83 104.31 203.04 101.62 203.85 98.86C204.68 96.02 205.11 93.08 205.11 90.13C205.11 87.59 204.79 85.05 204.17 82.59C203.57 80.18 202.67 77.82 201.49 75.56C200.34 73.35 198.91 71.21 197.25 69.21C195.61 67.23 193.72 65.36 191.64 63.67C189.56 61.98 187.27 60.44 184.83 59.1C182.37 57.75 179.75 56.59 177.02 55.65C174.25 54.69 171.34 53.96 168.39 53.47C165.36 52.96 162.24 52.71 159.12 52.71C153.96 52.71 148.89 53.4 144.05 54.76L143.64 54.88L143.43 54.57C139.5 48.88 133.77 44.1 126.88 40.75C123.39 39.05 119.65 37.74 115.75 36.85C111.72 35.93 107.54 35.47 103.33 35.47C97.65 35.47 92.11 36.3 86.86 37.94C81.79 39.52 77.13 41.81 73.03 44.74C68.95 47.65 65.56 51.09 62.96 54.95C60.3 58.91 58.56 63.18 57.79 67.65L57.73 67.98L57.32 68.01C52.69 68.3 48.24 69.3 44.08 70.96C40.05 72.57 36.44 74.75 33.37 77.45C27.06 82.98 23.58 90.18 23.58 97.73C23.58 101.76 24.55 105.66 26.46 109.34C27.38 111.11 28.52 112.81 29.84 114.4C31.15 115.98 32.66 117.47 34.31 118.82C35.97 120.17 37.8 121.39 39.74 122.46C41.69 123.54 43.79 124.46 45.96 125.21C50.48 126.76 55.27 127.55 60.22 127.55L159.12 127.55L165.37 127.55ZM165.37 127.97L159.12 127.97L60.22 127.97C39.7 127.97 23.07 114.43 23.07 97.73C23.07 81.84 38.13 68.81 57.28 67.59C60.45 49.2 79.85 35.05 103.33 35.05C120.74 35.05 135.91 42.84 143.88 54.37C148.66 53.02 153.78 52.29 159.12 52.29C184.8 52.29 205.62 69.23 205.62 90.13C205.62 96.21 203.86 101.95 200.73 107.04C195.91 119.19 181.9 127.97 165.37 127.97Z"
                fill="#FFFFFF" fill-opacity="0.500000" fill-rule="nonzero" />
        </g>
    </symbol>

</svg>