<svg viewBox="0 0 246 160" fill="none" xmlns="http://www.w3.org/2000/svg" xmlns:xlink="http://www.w3.org/1999/xlink">
	<defs>
		<filter id="filter_240_1500_dd" x="30.618042" y="-0.831543" width="91.085693" height="80.024963" filterUnits="userSpaceOnUse" color-interpolation-filters="sRGB">
			<feFlood flood-opacity="0" result="BackgroundImageFix"/>
			<feBlend mode="normal" in="SourceGraphic" in2="BackgroundImageFix" result="shape"/>
			<feGaussianBlur stdDeviation="6.66667" result="effect_layerBlur_1"/>
		</filter>
		<filter id="filter_240_1502_dd" x="3.070801" y="7.054077" width="242.556152" height="152.921265" filterUnits="userSpaceOnUse" color-interpolation-filters="sRGB">
			<feFlood flood-opacity="0" result="BackgroundImageFix"/>
			<feColorMatrix in="SourceAlpha" type="matrix" values="0 0 0 0 0 0 0 0 0 0 0 0 0 0 0 0 0 0 127 0" result="hardAlpha"/>
			<feOffset dx="10" dy="2"/>
			<feGaussianBlur stdDeviation="10"/>
			<feComposite in2="hardAlpha" operator="out" k2="-1" k3="1"/>
			<feColorMatrix type="matrix" values="0 0 0 0 0.50196 0 0 0 0 0.50196 0 0 0 0 0.50196 0 0 0 0.3 0"/>
			<feBlend mode="normal" in2="BackgroundImageFix" result="effect_dropShadow_1"/>
			<feBlend mode="normal" in="SourceGraphic" in2="effect_dropShadow_1" result="shape"/>
		</filter>
		<linearGradient id="paint_linear_240_1504_0" x1="114.361374" y1="35.055176" x2="224.790619" y2="120.077072" gradientUnits="userSpaceOnUse">
			<stop stop-color="#FFFFFF" stop-opacity="0.603922"/>
			<stop offset="1.000000" stop-color="#FFFFFF" stop-opacity="0.200000"/>
		</linearGradient>
	</defs>
	<path id="Subtraction 1" d="M53.35 13.54C56.97 13.54 60.58 13.84 64.13 14.43C70.98 15.58 77.48 17.82 83.26 21.02C91.27 25.43 97.67 31.53 101.79 38.65C105.9 45.78 107.58 53.68 106.66 61.51C105.73 69.35 102.22 76.84 96.5 83.2C90.79 89.55 83.07 94.53 74.17 97.62C70.94 98.74 67.57 99.59 64.13 100.17C56.66 101.4 48.96 101.33 41.53 99.95C34.11 98.57 27.13 95.91 21.06 92.17C14.99 88.42 9.97 83.66 6.34 78.21C2.71 72.76 0.55 66.74 0 60.56C5.85 61.68 11.93 61.75 17.82 60.77C23.11 59.89 28.13 58.17 32.6 55.71C39.25 52.06 44.45 46.92 47.58 40.91C48.63 38.87 49.44 36.76 49.98 34.6C51.15 29.96 51.1 25.17 49.86 20.55C49.23 18.24 48.31 15.99 47.1 13.84C49.17 13.64 51.26 13.54 53.35 13.54Z" fill="#713FFD" fill-opacity="1.000000" fill-rule="nonzero"/>
	<g filter="url(#filter_240_1500_dd)">
		<path id="Ellipse 2" d="M54.41 23.24C61.81 16.56 77.54 18.27 89.55 27.07C101.56 35.87 105.3 48.42 97.9 55.11C90.5 61.8 74.77 60.08 62.76 51.28C50.75 42.48 47.01 29.93 54.41 23.24Z" fill="#A586FC" fill-opacity="1.000000" fill-rule="evenodd"/>
	</g>
	<g filter="url(#filter_240_1502_dd)">
		<path id="Vector" d="M159.12 127.97L60.22 127.97C50.62 127.96 41.41 124.94 34.49 119.53C27.58 114.11 23.5 106.73 23.12 98.93C22.74 91.13 26.09 83.51 32.45 77.67C38.82 71.83 47.71 68.22 57.28 67.59C58.64 59.76 62.99 52.46 69.71 46.74C76.43 41.02 85.19 37.16 94.75 35.7C104.31 34.24 114.19 35.26 123.01 38.6C131.82 41.95 139.12 47.47 143.88 54.37C152.62 51.91 162.05 51.62 170.99 53.54C179.92 55.47 187.95 59.51 194.05 65.16C200.15 70.81 204.04 77.82 205.23 85.27C206.42 92.73 204.86 100.31 200.73 107.04C198.31 113.12 193.58 118.43 187.23 122.19C180.88 125.95 173.23 127.97 165.37 127.97L159.12 127.97Z" fill="url(#paint_linear_240_1504_0)" fill-opacity="1.000000" fill-rule="nonzero"/>
		<path id="Vector" d="M165.37 127.55C169.36 127.55 173.28 127.03 177.03 126.01C180.65 125.02 184.05 123.58 187.13 121.72C190.18 119.89 192.85 117.69 195.08 115.19C197.33 112.66 199.06 109.87 200.24 106.91L200.25 106.88L200.27 106.85C201.83 104.31 203.04 101.62 203.85 98.86C204.68 96.02 205.11 93.08 205.11 90.13C205.11 87.59 204.79 85.05 204.17 82.59C203.57 80.18 202.67 77.82 201.49 75.56C200.34 73.35 198.91 71.21 197.25 69.21C195.61 67.23 193.72 65.36 191.64 63.67C189.56 61.98 187.27 60.44 184.83 59.1C182.37 57.75 179.75 56.59 177.02 55.65C174.25 54.69 171.34 53.96 168.39 53.47C165.36 52.96 162.24 52.71 159.12 52.71C153.96 52.71 148.89 53.4 144.05 54.76L143.64 54.88L143.43 54.57C139.5 48.88 133.77 44.1 126.88 40.75C123.39 39.05 119.65 37.74 115.75 36.85C111.72 35.93 107.54 35.47 103.33 35.47C97.65 35.47 92.11 36.3 86.86 37.94C81.79 39.52 77.13 41.81 73.03 44.74C68.95 47.65 65.56 51.09 62.96 54.95C60.3 58.91 58.56 63.18 57.79 67.65L57.73 67.98L57.32 68.01C52.69 68.3 48.24 69.3 44.08 70.96C40.05 72.57 36.44 74.75 33.37 77.45C27.06 82.98 23.58 90.18 23.58 97.73C23.58 101.76 24.55 105.66 26.46 109.34C27.38 111.11 28.52 112.81 29.84 114.4C31.15 115.98 32.66 117.47 34.31 118.82C35.97 120.17 37.8 121.39 39.74 122.46C41.69 123.54 43.79 124.46 45.96 125.21C50.48 126.76 55.27 127.55 60.22 127.55L159.12 127.55L165.37 127.55ZM165.37 127.97L159.12 127.97L60.22 127.97C39.7 127.97 23.07 114.43 23.07 97.73C23.07 81.84 38.13 68.81 57.28 67.59C60.45 49.2 79.85 35.05 103.33 35.05C120.74 35.05 135.91 42.84 143.88 54.37C148.66 53.02 153.78 52.29 159.12 52.29C184.8 52.29 205.62 69.23 205.62 90.13C205.62 96.21 203.86 101.95 200.73 107.04C195.91 119.19 181.9 127.97 165.37 127.97Z" fill="#FFFFFF" fill-opacity="0.500000" fill-rule="nonzero"/>
	</g>
</svg>
