<svg width="39.312561" height="23.594238" viewBox="0 0 39.3126 23.5942" fill="none" xmlns="http://www.w3.org/2000/svg" xmlns:xlink="http://www.w3.org/1999/xlink">
	<path id="° C" d="M30.0706 1.33514e-05C34.6955 1.33514e-05 38.457 2.7826 39.3126 7.4922L36.53 7.4922C35.8594 4.30879 33.123 2.60532 30.0706 2.60532C25.9006 2.60532 22.6247 5.83498 22.6247 11.801C22.6247 17.7593 25.9006 20.9889 30.0706 20.9889C33.123 20.9889 35.8594 19.2854 36.53 16.102L39.3126 16.102C38.457 20.8116 34.6955 23.5942 30.0706 23.5942C24.1971 23.5942 19.9346 19.0619 19.9346 11.801C19.9346 4.53232 24.1971 1.33514e-05 30.0706 1.33514e-05ZM10.3133 5.29542C10.3133 8.13967 8.00094 10.4521 5.15669 10.4521C2.30472 10.4521 2.7895e-05 8.13967 2.7895e-05 5.29542C2.7895e-05 2.44345 2.30472 0.138758 5.15669 0.138758C8.00094 0.138758 10.3133 2.44345 10.3133 5.29542ZM2.24306 5.29542C2.24306 6.90639 3.538 8.20904 5.15669 8.20904C6.76766 8.20904 8.07031 6.90639 8.07031 5.29542C8.07031 3.67673 6.76766 2.38179 5.15669 2.38179C3.538 2.38179 2.24306 3.67673 2.24306 5.29542Z" fill="#FFFFFF" fill-opacity="1.000000" fill-rule="evenodd"/>
</svg>
